<svg width="430" height="300" viewBox="0 0 430 300" fill="none" xmlns="http://www.w3.org/2000/svg">
<g clip-path="url(#clip0)">
<path opacity="0.15" d="M422.015 85.6606C417.922 76.1467 412.39 67.3209 405.613 59.4936L178.056 57.25L365.412 30.9046C353.31 26.077 340.425 23.5176 327.399 23.354C309.476 9.00468 287.405 0.832762 264.47 0.0543721C241.536 -0.724018 218.963 5.93272 200.111 19.034C185.044 11.2815 168.342 7.25406 151.402 7.28864C100.842 7.28864 58.7112 42.3501 49.259 88.8456L422.015 85.6606Z" fill="white"/>
<path opacity="0.15" d="M430 124.655C430.011 112.047 427.604 99.554 422.91 87.8548L28.5234 129.301C24.4675 136.664 21.3639 144.513 19.2873 152.659L141.415 170.881L16.5005 184.167C20.2579 236.801 65.3273 278.366 120.387 278.366C148.099 278.366 173.279 267.831 191.94 250.654C210.655 268.154 236.077 278.916 264.088 278.916C305.651 278.916 341.518 255.224 358.223 220.968C391.736 210.338 417.75 183.579 426.679 150.127L272.225 126.162H429.977C429.977 125.661 430 125.16 430 124.655Z" fill="white"/>
<path d="M184.486 294.31C271.61 294.31 342.238 287.596 342.238 279.315C342.238 271.033 271.61 264.32 184.486 264.32C97.3619 264.32 26.7338 271.033 26.7338 279.315C26.7338 287.596 97.3619 294.31 184.486 294.31Z" fill="white"/>
<path d="M303.781 251.36C306.147 250.354 307.903 249.515 308.377 249.082C310.276 247.355 326.909 232.276 322.583 246.664C318.257 261.051 308.555 266.605 308.555 266.605C308.555 266.605 297.988 276.316 295.736 281.346C293.484 286.376 286.735 284.99 283.96 281.346C281.184 277.701 272.528 279.091 272.528 279.091L259.36 280.131C259.36 280.131 235.493 283.293 227.485 277.747C219.478 272.201 214.143 272.155 214.143 272.155C214.143 272.155 207.91 274.93 200.812 275.276C197.447 275.506 194.102 275.983 190.807 276.703C190.727 277.053 190.599 277.39 190.427 277.705H190.287C190.21 278.068 190.083 278.418 189.908 278.745C189.908 278.745 180.206 279.079 173.366 277.876C166.526 276.673 151.303 278.571 151.303 278.571C151.303 278.571 145.036 278.574 131.178 279.873C117.32 281.171 91.5985 279.873 91.5985 279.873C91.5985 279.873 78.5899 278.563 76.0951 275.697C73.6003 272.831 70.8136 272.656 66.3965 268.864C61.9794 265.071 61.3728 254.017 61.3728 254.017C61.3728 254.017 60.3491 245.031 75.678 241.657C91.007 238.282 101.487 245.495 101.487 245.495C101.49 245.487 101.563 245.381 101.669 245.202H101.528L101.703 245.138C102.127 244.424 103.026 242.72 102.981 241.125C102.901 239.026 105.255 233.711 105.255 233.711L105.305 233.688C105.24 233.485 105.24 233.266 105.305 233.062C106.15 230.393 108.941 225.386 108.941 225.386C108.941 225.386 110.954 224.217 110.89 223.109C110.825 222 114.594 218.751 114.594 218.751C114.594 218.751 116.929 216.811 116.607 215.175C116.285 213.538 118.882 210.881 118.882 210.881L123.811 201.189C123.811 201.189 127.97 192.162 130.829 191.76C133.688 191.357 138.95 183.017 138.95 183.017C138.95 183.017 148.304 175.467 148.368 173.906C148.433 172.346 153.047 169.548 153.047 169.548C153.047 169.548 153.066 169.723 153.127 170.012L153.665 169.583C156.945 166.975 161.805 163.573 165.476 163.046C165.476 163.046 170.454 159.895 173.79 156.63C175.026 155.43 187.986 149.512 199.129 145.241C208.414 141.68 218.12 139.334 228.005 138.26H228.069H228.191L265.772 146.206C269.898 147.079 273.831 148.695 277.381 150.974C278.443 151.653 279.599 152.412 280.813 153.229C280.164 152.803 279.508 152.378 278.94 152.014C278.371 151.649 277.791 151.308 277.203 150.978C287.414 157.53 306.712 171.371 295.895 176.218C281.518 182.668 272.854 158.908 272.854 158.908C272.854 158.908 268.346 154.732 255.19 155.783C242.033 156.835 220.755 153.369 220.755 153.369C220.755 153.369 212.793 160.821 202.556 161.341C202.556 161.341 195.11 163.941 194.071 166.022C193.237 167.684 191.745 171.118 191.175 172.431L191.144 172.502L191.474 172.437L191.03 172.775C190.977 172.897 190.954 172.957 190.954 172.957L193.389 173.656C194.779 174.006 196.208 174.183 197.643 174.184C197.995 174.177 198.347 174.149 198.697 174.1C199.206 170.181 201.119 166.581 204.081 163.97C207.043 161.358 210.852 159.913 214.799 159.902C215.422 159.902 216.045 159.936 216.664 160.005C216.835 160.024 217.006 160.05 217.173 160.077C217.199 160.031 217.199 159.955 217.199 159.94V159.899C217.351 159.242 217.832 159.018 218.409 158.904C218.704 158.847 219.023 158.813 219.337 158.771C219.599 158.741 219.846 158.699 220.096 158.699H220.289C220.596 158.699 220.9 158.68 221.21 158.699C222.803 158.755 224.361 159.183 225.76 159.948C226.28 160.229 226.776 160.555 227.311 160.798C228.573 161.368 229.995 161.44 231.311 161.857C233.946 162.685 235.997 164.849 237.294 167.282C238.591 169.715 239.243 172.445 239.876 175.129C240.063 175.737 240.112 176.379 240.02 177.008C239.957 177.274 239.856 177.53 239.72 177.767C239.679 177.839 239.629 177.911 239.588 177.987C240.103 178.15 240.599 178.365 241.07 178.629C242.5 179.446 243.718 180.589 244.623 181.966C246.204 184.35 246.879 187.235 247.076 190.093C247.198 191.309 247.137 192.536 246.894 193.734V193.787L246.871 193.893C246.841 194.007 246.814 194.121 246.776 194.235L246.708 194.444C246.629 194.675 246.545 194.907 246.454 195.135C246.299 195.537 246.128 195.917 245.965 196.296C245.717 196.853 245.529 197.435 245.404 198.031C245.04 200.013 245.829 202.009 246.469 203.908C247.086 205.718 247.577 207.568 247.94 209.446C248.312 211.405 248.52 213.489 248.069 215.387C248.07 215.377 248.07 215.367 248.069 215.357C248.054 215.433 248.031 215.509 248.012 215.585L247.99 215.676L247.967 215.763C247.936 215.89 247.902 215.998 247.868 216.107L247.857 216.143C247.842 216.188 247.846 216.184 247.815 216.283C247.785 216.382 247.743 216.48 247.705 216.583C247.618 216.802 247.519 217.016 247.41 217.225L247.36 217.323C247.319 217.407 247.269 217.494 247.228 217.574C247.214 217.596 247.199 217.618 247.182 217.638L247.087 217.805C247.023 217.915 246.97 217.995 246.886 218.136C246.803 218.276 246.716 218.416 246.625 218.553L246.591 218.603C246.321 219.016 246.037 219.426 245.76 219.832C245.658 219.981 245.559 220.132 245.461 220.28C245.313 220.508 245.173 220.74 245.036 220.971C244.983 221.059 244.93 221.15 244.884 221.237C244.786 221.396 244.691 221.594 244.604 221.776C244.403 222.198 244.245 222.639 244.134 223.093C243.546 225.542 244.589 228.055 245.442 230.428C247.163 235.237 248.107 240.616 246.481 245.419C246.447 245.532 246.405 245.646 246.364 245.759L246.363 245.76L246.227 246.11C246.211 246.148 246.185 246.185 246.185 246.22C246.098 246.44 245.995 246.66 245.885 246.876V246.903C247.791 247.726 249.634 248.689 251.398 249.784C255.486 250.371 259.504 251.369 263.391 252.764C265.609 253.554 268.327 254.283 270.788 254.283C276.157 254.283 303.869 246.998 303.869 250.642C303.817 250.998 303.631 251.32 303.349 251.542L303.781 251.36Z" fill="url(#paint0_linear)"/>
<path d="M294.204 176.795C280.062 183.139 271.542 159.769 271.542 159.769C271.542 159.769 267.118 155.673 254.166 156.698C241.214 157.723 220.263 154.307 220.263 154.307C220.263 154.307 212.426 161.649 202.374 162.15C202.374 162.15 195.049 164.708 194.033 166.758C193.203 168.421 191.694 171.894 191.155 173.128C191.124 173.22 191.087 173.31 191.045 173.398C190.992 173.515 190.97 173.58 190.97 173.58L190.549 173.777L182.109 177.835L170.526 181.081L163.197 181.931L150.761 173.303C150.761 173.303 152.198 171.959 154.31 170.266C157.536 167.703 162.317 164.355 165.927 163.839C165.927 163.839 170.825 160.737 174.105 157.53C175.322 156.334 188.069 150.514 199.026 146.312C208.16 142.81 217.706 140.502 227.428 139.445L264.392 147.261C268.453 148.118 272.326 149.704 275.823 151.942C285.851 158.407 304.858 172.02 294.204 176.795Z" fill="#FFC1C7"/>
<g opacity="0.1">
<path opacity="0.1" d="M152.467 174.339C152.467 174.339 153.904 172.992 156.016 171.302C159.242 168.74 164.023 165.392 167.633 164.875C167.633 164.875 172.532 161.774 175.811 158.566C177.028 157.366 189.775 151.551 200.733 147.348C209.867 143.855 219.413 141.557 229.135 140.511L266.098 148.324C270.158 149.182 274.03 150.769 277.525 153.008C278.114 153.386 278.729 153.784 279.368 154.204C278.174 153.399 277.036 152.652 275.994 151.983C272.498 149.746 268.626 148.16 264.566 147.303L227.603 139.486C217.88 140.543 208.334 142.851 199.201 146.354C188.24 150.556 175.493 156.376 174.279 157.571C170.996 160.779 166.101 163.881 166.101 163.881C162.492 164.397 157.707 167.745 154.484 170.308C152.372 171.989 150.935 173.345 150.935 173.345L163.371 181.973H163.421L152.467 174.339Z" fill="black"/>
<path opacity="0.1" d="M273.26 160.791C272.794 160.411 272.285 160.089 271.743 159.83C272.085 160.734 276.399 171.925 283.759 176.222C277.048 171.177 273.26 160.791 273.26 160.791Z" fill="black"/>
</g>
<path d="M247.072 215.626C247.025 215.823 246.968 216.017 246.902 216.207C246.871 216.306 246.829 216.405 246.795 216.499C246.699 216.737 246.59 216.968 246.469 217.194C246.42 217.297 246.363 217.399 246.314 217.498C246.302 217.52 246.288 217.542 246.272 217.562C246.219 217.661 246.166 217.752 246.109 217.843C245.73 218.489 245.29 219.104 244.869 219.741C244.729 219.946 244.589 220.155 244.456 220.368C244.432 220.411 244.406 220.453 244.376 220.493C244.304 220.611 244.229 220.736 244.16 220.873C244.092 221.009 244.039 221.078 243.986 221.18C243.933 221.283 243.925 221.286 243.899 221.34L243.736 221.655C243.545 222.05 243.394 222.463 243.284 222.888C242.701 225.299 243.732 227.77 244.57 230.101C246.261 234.831 247.193 240.123 245.593 244.845C245.556 244.956 245.518 245.069 245.476 245.183C245.434 245.297 245.362 245.483 245.302 245.631C245.211 245.859 245.108 246.083 244.994 246.307C244.13 247.992 242.647 249.507 240.824 249.344C238.318 249.124 237.101 246.049 234.818 245.001C232.835 244.09 230.329 244.834 228.46 243.71C228.616 243.199 228.828 242.706 229.093 242.241C229.43 241.619 229.851 241.023 230.23 240.431C230.866 239.556 231.377 238.596 231.747 237.58C231.82 237.353 231.879 237.122 231.925 236.889C231.927 236.871 231.927 236.853 231.925 236.836C231.944 236.718 231.967 236.608 231.982 236.49C231.997 236.372 232.012 236.266 232.024 236.145C232.026 236.124 232.026 236.104 232.024 236.084C232.024 235.951 232.024 235.818 232.05 235.681C232.054 234.399 231.927 233.119 231.671 231.863C231.198 229.008 230.723 226.153 230.246 223.298C229.897 221.21 229.556 219.024 230.2 217.008C230.249 216.864 230.302 216.72 230.356 216.579C230.409 216.439 230.473 216.294 230.538 216.158C230.91 215.381 231.349 214.638 231.849 213.937C233.053 212.165 234.343 210.451 235.72 208.793C236.653 207.654 237.654 206.516 237.995 205.096C238.032 204.959 238.06 204.819 238.079 204.678C238.299 203.308 237.912 201.941 237.457 200.571C237.399 200.411 237.346 200.252 237.298 200.092C237.138 199.622 236.979 199.147 236.843 198.665C236.797 198.509 236.756 198.35 236.714 198.191C236.633 197.871 236.568 197.548 236.52 197.222C236.47 196.901 236.442 196.576 236.437 196.251C236.437 196.099 236.437 195.943 236.437 195.791C236.437 195.639 236.437 195.564 236.467 195.446C236.498 195.328 236.502 195.203 236.52 195.066C236.539 194.93 236.551 194.884 236.57 194.793C236.589 194.702 236.627 194.516 236.665 194.383C236.686 194.273 236.715 194.166 236.752 194.06C236.771 193.973 236.797 193.886 236.82 193.802L236.919 193.498L237.074 193.058C237.123 192.914 237.18 192.766 237.237 192.622C237.521 191.862 237.847 191.103 238.132 190.374C238.292 189.953 238.43 189.523 238.545 189.087C238.545 189.008 238.587 188.92 238.606 188.837C238.629 188.753 238.648 188.668 238.663 188.582C238.689 188.477 238.709 188.371 238.723 188.264C238.75 188.123 238.776 187.975 238.792 187.831C238.807 187.687 238.822 187.538 238.833 187.39C238.845 187.242 238.833 187.098 238.833 186.954C238.84 186.44 238.767 185.927 238.617 185.435C238.561 185.235 238.487 185.039 238.397 184.851C238.331 184.721 238.259 184.594 238.181 184.471C237.696 183.682 236.941 183.078 236.502 182.254C236.242 181.749 236.112 181.186 236.122 180.618C236.121 180.463 236.131 180.308 236.153 180.155C236.176 179.998 236.211 179.843 236.259 179.692C236.274 179.631 236.295 179.571 236.32 179.513C236.347 179.45 236.374 179.389 236.399 179.331C236.436 179.255 236.478 179.182 236.524 179.111C236.562 179.062 236.596 179.008 236.634 178.963C237.036 178.454 237.681 178.204 238.564 178.462L238.78 178.534C239.285 178.696 239.773 178.909 240.236 179.168C241.643 179.971 242.84 181.095 243.732 182.448C245.286 184.794 245.95 187.633 246.143 190.443C246.261 191.639 246.201 192.847 245.965 194.026C245.965 194.075 245.938 194.132 245.931 194.182C245.901 194.296 245.874 194.41 245.836 194.52C245.606 195.209 245.34 195.885 245.04 196.547C244.797 197.095 244.611 197.668 244.486 198.255C244.13 200.206 244.907 202.154 245.537 204.033C246.133 205.817 246.607 207.639 246.955 209.488C247.394 211.526 247.607 213.664 247.072 215.626Z" fill="#965D7B"/>
<g opacity="0.1">
<path opacity="0.1" d="M245.093 196.554C245.395 195.891 245.662 195.211 245.893 194.52C245.942 194.356 245.988 194.193 246.026 194.026C245.639 194.839 245.327 195.685 245.093 196.554Z" fill="black"/>
<path opacity="0.1" d="M238.261 184.471C239.102 185.838 239.019 187.508 238.602 189.114C238.632 189.03 238.666 188.951 238.697 188.867C239.421 186.969 239.834 184.691 238.773 182.937C238.284 182.148 237.525 181.54 237.089 180.721C236.811 180.178 236.681 179.572 236.71 178.963C236.069 179.76 236.024 181.187 236.596 182.258C237.013 183.078 237.772 183.682 238.261 184.471Z" fill="black"/>
<path opacity="0.1" d="M243.815 221.37C243.796 221.453 243.781 221.537 243.766 221.624C244.6 219.851 246.071 218.348 246.799 216.511C246.952 216.126 247.073 215.728 247.159 215.323C246.185 217.414 244.339 219.111 243.815 221.37Z" fill="black"/>
<path opacity="0.1" d="M245.813 244.113C245.032 246.041 243.406 248.004 241.332 247.822C238.826 247.605 237.612 244.53 235.326 243.479C233.385 242.587 230.943 243.278 229.089 242.256C228.826 242.722 228.613 243.214 228.456 243.726C230.325 244.864 232.831 244.105 234.814 245.012C237.089 246.064 238.314 249.143 240.82 249.359C242.894 249.538 244.521 247.575 245.302 245.646C245.511 245.126 245.689 244.594 245.836 244.052L245.813 244.113Z" fill="black"/>
<path opacity="0.1" d="M231.701 231.878C231.978 233.54 232.251 235.268 231.925 236.904C232.052 236.63 232.163 236.349 232.255 236.061C232.839 234.228 232.528 232.242 232.213 230.344C231.741 227.489 231.265 224.633 230.788 221.776C230.481 219.92 230.177 217.98 230.568 216.169C230.438 216.447 230.325 216.732 230.23 217.023C229.586 219.039 229.931 221.222 230.276 223.31C230.754 226.17 231.229 229.026 231.701 231.878Z" fill="black"/>
<path opacity="0.1" d="M238.549 203.577C239.281 200.639 237.032 197.758 236.991 194.732C236.997 194.028 237.098 193.329 237.29 192.652C236.795 193.796 236.521 195.023 236.483 196.27C236.509 199.155 238.56 201.907 238.117 204.709C238.302 204.349 238.447 203.969 238.549 203.577Z" fill="black"/>
</g>
<path d="M320.441 246.083C316.183 260.239 306.64 265.698 306.64 265.698C306.64 265.698 296.248 275.253 294.03 280.211C291.812 285.168 285.173 283.794 282.451 280.211C279.728 276.627 271.205 277.997 271.205 277.997L258.253 279.019C258.253 279.019 234.784 282.135 226.905 276.676C219.027 271.217 213.787 271.176 213.787 271.176C213.787 271.176 207.652 273.901 200.672 274.247C197.356 274.468 194.061 274.935 190.814 275.644C189.006 276.023 187.425 276.403 186.291 276.673C185.157 276.942 184.482 277.143 184.482 277.143L167.132 275.393L150.746 273.734L141.889 272.535L139.565 267.471L137.328 262.604L136.569 260.941L137.631 243.551H165.574C165.574 243.551 194.716 245.069 198.458 245.069H199.307C199.307 245.069 203.967 243.202 211.572 247.795C212.542 248.34 213.557 248.799 214.606 249.169C226.693 253.69 260.653 259.567 260.653 259.567L282.644 258.2C282.644 258.2 295.008 253.69 301.98 250.718C304.305 249.724 306.034 248.9 306.496 248.478C308.343 246.766 324.699 231.923 320.441 246.083Z" fill="#FFC1C7"/>
<path opacity="0.1" d="M147.235 260.645L148.581 265.443L143.978 267.941L139.568 267.455L137.331 262.589L136.573 260.926L137.635 243.536H165.559C159.732 244.06 147.235 260.645 147.235 260.645Z" fill="black"/>
<path d="M146.723 260.645L148.069 265.443L143.47 267.941L131.841 266.662L125.578 261.609C115.341 244.978 102.962 244.906 102.962 244.906C102.962 244.906 104.497 242.663 104.433 240.616C104.368 238.57 106.685 233.324 106.685 233.324L106.905 233.218C107.686 232.838 110.336 231.525 110.503 231.468C110.503 231.468 163.079 239.975 164.103 240.298C164.367 240.407 164.584 240.608 164.714 240.863C165.309 241.797 165.574 243.521 165.574 243.521C160.023 243.008 146.723 260.645 146.723 260.645Z" fill="#565988"/>
<path d="M208.85 189.619C207.305 189.586 205.761 189.684 204.232 189.911C201.688 190.325 199.25 191.293 200.331 193.544C202.374 197.807 189.426 205.312 189.426 205.312L171.364 216.913L160.118 199.853L165.915 186.035L182.097 177.847L190.962 173.588C190.962 173.588 194.473 174.867 197.559 174.795C198.985 174.764 200.323 174.445 201.184 173.588C203.906 170.858 208.85 189.619 208.85 189.619Z" fill="#FFC1C7"/>
<path opacity="0.1" d="M208.85 189.619C207.305 189.586 205.761 189.684 204.232 189.911C202.13 188.433 200.415 186.469 199.232 184.186C198.049 181.902 197.434 179.367 197.438 176.795C197.436 176.127 197.476 175.458 197.559 174.795C198.985 174.764 200.323 174.445 201.184 173.588C203.906 170.858 208.85 189.619 208.85 189.619Z" fill="black"/>
<path d="M230.484 176.795C230.485 178.901 230.071 180.986 229.267 182.932C228.462 184.878 227.283 186.645 225.796 188.135C224.31 189.624 222.544 190.806 220.601 191.612C218.659 192.418 216.576 192.834 214.473 192.834C213.731 192.834 212.99 192.782 212.255 192.678C208.235 192.121 204.576 190.055 202.019 186.9C199.461 183.745 198.195 179.736 198.477 175.682C198.759 171.629 200.567 167.833 203.536 165.063C206.506 162.293 210.415 160.755 214.473 160.76C215.086 160.762 215.699 160.796 216.308 160.863C220.211 161.316 223.812 163.19 226.425 166.127C229.039 169.065 230.484 172.861 230.484 176.795Z" fill="#FFC1C7"/>
<path opacity="0.1" d="M302.041 251.029C302.041 253.064 291.239 257.198 281.924 260.387C275.389 262.568 268.519 263.567 261.635 263.337C261.079 263.308 260.521 263.358 259.978 263.485C257.423 264.164 224.202 256.317 224.202 256.317C224.202 256.317 217.419 253.167 214.613 249.162C226.701 253.683 260.661 259.559 260.661 259.559L282.651 258.193C282.651 258.193 295.016 253.683 301.988 250.71C302.035 250.81 302.053 250.92 302.041 251.029Z" fill="black"/>
<path d="M201.862 195.116C201.862 195.116 204.247 201.391 207.315 202.924C210.382 204.458 216.513 210.6 216.005 218.618C216.005 218.618 214.981 220.838 218.219 225.451C221.457 230.063 229.294 240.119 229.294 240.119C229.294 240.119 245.305 245.749 250.416 249.162H250.435C254.454 249.74 258.404 250.725 262.223 252.104C264.407 252.863 267.08 253.596 269.499 253.596C274.78 253.596 302.041 246.432 302.041 250.012C302.041 252.051 291.239 256.185 281.92 259.373C275.386 261.549 268.517 262.544 261.635 262.312C261.079 262.285 260.521 262.335 259.978 262.46C257.423 263.139 224.198 255.293 224.198 255.293C224.198 255.293 217.195 252.054 214.469 247.943C211.743 243.832 204.763 238.578 204.763 238.578C204.763 238.578 197.097 225.614 196.422 222.543C196.422 222.543 192.505 220.326 182.279 223.735C172.054 227.144 180.054 216.055 180.054 216.055L191.47 202.769L201.862 195.116Z" fill="#FFC1C7"/>
<path opacity="0.1" d="M205.1 199.857L201.54 191.187C198.223 193.295 195.134 195.743 192.323 198.49C188.061 202.753 185.165 205.323 183.121 205.825C181.078 206.326 174.094 209.886 171.197 202.567C168.3 195.248 169.491 190.302 172.217 187.914C174.943 185.526 193.389 174.297 193.389 174.297L190.966 174.111C190.966 174.111 174.101 180.022 168.82 177.323C168.82 177.323 159.447 178.891 157.404 175.478C155.36 172.065 153.43 171.526 153.43 171.526L141.047 188.271L145.479 225.288H156.892L169.157 220.512L185.514 219.145C185.514 219.145 191.648 213.345 192.501 210.615C193.354 207.886 199.834 199.003 205.1 199.857Z" fill="black"/>
<path d="M205.1 199.352L201.54 190.682C198.223 192.79 195.134 195.238 192.323 197.986C188.061 202.252 185.165 204.819 183.121 205.32C181.078 205.821 174.094 209.382 171.197 202.063C168.3 194.744 169.491 189.797 172.217 187.409C174.943 185.022 193.389 174.297 193.389 174.297L190.966 173.603C190.966 173.603 174.101 179.51 168.82 176.81C168.82 176.81 159.447 178.378 157.404 174.966C155.36 171.553 153.43 171.014 153.43 171.014L141.047 187.759L145.479 224.775H156.892L169.157 220L185.514 218.633C185.514 218.633 191.648 212.836 192.501 210.107C193.354 207.377 199.834 198.49 205.1 199.352Z" fill="#565988"/>
<path opacity="0.1" d="M164.714 240.871C164.516 241.812 164.357 242.416 164.357 242.416C164.357 242.416 163.656 242.158 155.034 243.824C146.412 245.491 137.847 243.824 137.847 243.824C132.839 243.243 127.883 242.28 123.022 240.943C115.614 238.832 105.9 236.334 106.719 233.73C106.772 233.578 106.825 233.408 106.89 233.241C107.671 232.861 110.321 231.547 110.488 231.491C110.488 231.491 163.064 239.998 164.088 240.32C164.355 240.423 164.577 240.619 164.714 240.871Z" fill="black"/>
<path opacity="0.1" d="M201.54 191.187L204.498 197.879C204.498 197.879 199.948 195.461 194.132 205.377C188.316 215.292 187.55 216.701 187.55 216.701C187.55 216.701 183.462 219.495 184.486 223.055C184.486 223.055 172.376 227.231 164.391 224.471C164.391 224.471 162.602 229.877 162.795 233.525C162.914 235.473 162.924 237.426 162.825 239.375C162.825 239.375 165.1 237.648 156.471 239.314C147.841 240.981 139.284 240.495 139.284 240.495C134.576 239.726 129.915 238.691 125.324 237.394C117.911 235.283 106.412 235.826 107.242 233.218C108.073 230.61 110.821 225.671 110.821 225.671C110.821 225.671 112.8 224.532 112.717 223.431C112.634 222.33 116.361 219.145 116.361 219.145C116.361 219.145 118.658 217.228 118.34 215.626C118.021 214.024 120.577 211.405 120.577 211.405L125.434 201.877C125.434 201.877 129.521 192.982 132.334 192.599C135.148 192.215 140.319 184.027 140.319 184.027C140.319 184.027 149.517 176.609 149.582 175.072C149.646 173.534 154.181 170.786 154.181 170.786C154.181 170.786 154.913 177.065 161.005 177.323C167.098 177.581 175.148 177.323 175.148 177.323L190.954 173.603C190.954 173.603 184.031 179.87 182.431 180.318C180.831 180.766 176.024 184.221 173.574 184.874C171.125 185.526 166.147 188.875 166.34 193.658C166.533 198.441 168.194 200.871 168.194 200.871C168.194 200.871 173.176 210.361 178.158 209.222C178.158 209.222 183.724 209.522 185.953 206.216C188.183 202.909 201.54 191.187 201.54 191.187Z" fill="black"/>
<path opacity="0.1" d="M191.47 173.075L191.038 173.405L190.541 173.785L182.101 177.843L170.518 181.089L163.189 181.939L150.753 173.31C150.753 173.31 152.19 171.967 154.302 170.273C154.643 171.792 156.035 176.059 161.017 176.268C167.102 176.53 175.159 176.268 175.159 176.268L191.152 173.121L191.47 173.075Z" fill="black"/>
<path d="M201.54 190.674L204.498 197.887C204.498 197.887 199.436 194.96 193.62 204.876C187.804 214.791 187.042 216.196 187.042 216.196C187.042 216.196 183.462 219.502 184.486 223.063C184.486 223.063 173.43 228.67 165.445 225.918C165.445 225.918 165.256 229.247 165.445 232.891C165.635 236.536 164.361 241.398 164.361 241.398C164.361 241.398 163.656 241.144 155.03 242.807C146.404 244.47 137.847 242.807 137.847 242.807C132.839 242.228 127.883 241.266 123.022 239.929C115.614 237.819 105.9 235.321 106.719 232.717C107.538 230.112 110.298 225.166 110.298 225.166C110.298 225.166 112.277 224.027 112.217 222.926C112.156 221.825 115.856 218.64 115.856 218.64C115.856 218.64 118.158 216.742 117.836 215.125C117.513 213.508 120.073 210.9 120.073 210.9L124.929 201.372C124.929 201.372 129.017 192.477 131.83 192.094C134.643 191.71 139.815 183.522 139.815 183.522C139.815 183.522 149.028 176.082 149.089 174.544C149.149 173.007 153.692 170.258 153.692 170.258C153.692 170.258 154.42 176.537 160.516 176.795C166.613 177.053 174.662 176.795 174.662 176.795L190.966 173.588C190.966 173.588 183.534 179.342 181.938 179.79C180.342 180.238 175.527 183.693 173.078 184.346C170.628 184.999 165.646 188.377 165.836 193.176C166.025 197.974 167.69 200.388 167.69 200.388C167.69 200.388 172.672 209.856 177.658 208.706C177.658 208.706 183.22 209.002 185.449 205.699C187.679 202.397 201.54 190.674 201.54 190.674Z" fill="#E8F4FF"/>
<path opacity="0.1" d="M151.967 213.884C151.967 213.884 158.226 225.527 161.1 226.791C163.974 228.055 163.402 225.895 163.402 225.895C163.402 225.895 152.861 216.435 151.967 213.884Z" fill="black"/>
<path opacity="0.1" d="M139.891 222.714C139.891 222.714 146.025 232.5 150.56 232.5L139.891 222.714Z" fill="black"/>
<path opacity="0.1" d="M126.408 210.623C126.408 210.623 133.566 233.267 146.727 235.059C146.727 235.059 129.54 222.395 126.408 210.623Z" fill="black"/>
<path opacity="0.1" d="M127.686 230.196C127.686 230.196 139.508 239.599 146.727 238.195C146.727 238.195 134.397 236.084 127.686 230.196Z" fill="black"/>
<path opacity="0.1" d="M118.912 246.33C118.912 246.33 130.73 255.733 137.953 254.324C137.953 254.324 125.62 252.214 118.912 246.33Z" fill="black"/>
<path opacity="0.1" d="M122.002 251.667C122.002 251.667 133.82 261.07 141.039 259.666C141.039 259.666 128.71 257.555 122.002 251.667Z" fill="black"/>
<path opacity="0.1" d="M123.788 243.008C123.788 243.008 135.606 252.4 142.825 250.98C142.825 250.98 130.495 248.881 123.788 243.008Z" fill="black"/>
<path opacity="0.1" d="M178.223 187.337L170.814 196.869L171.834 198.786L178.223 187.337Z" fill="black"/>
<path opacity="0.1" d="M230.484 176.795C230.485 178.901 230.071 180.986 229.267 182.932C228.462 184.878 227.283 186.645 225.796 188.135C224.31 189.624 222.544 190.806 220.601 191.612C218.659 192.418 216.576 192.834 214.473 192.834C213.731 192.834 212.99 192.782 212.255 192.678C212.491 192.408 212.689 192.107 212.843 191.783C213.317 190.458 211.326 189.076 211.952 187.808C212.274 187.132 213.142 186.961 213.889 186.942C214.636 186.923 215.466 186.942 216.009 186.426C216.634 185.823 216.547 184.828 216.706 183.974C216.956 182.676 217.866 181.594 218.856 180.709C219.846 179.825 220.953 179.062 221.806 178.052C223.114 176.495 223.728 174.461 223.891 172.433C223.997 171.124 223.891 169.731 223.201 168.637C222.443 167.464 221.142 166.804 219.952 166.082C218.844 165.469 217.88 164.627 217.123 163.611C216.638 162.897 216.153 161.785 216.308 160.882C220.208 161.335 223.806 163.205 226.419 166.139C229.032 169.072 230.479 172.864 230.484 176.795Z" fill="black"/>
<path d="M239.265 177.581C239.203 177.847 239.102 178.103 238.966 178.34C238.928 178.409 238.883 178.481 238.841 178.553L238.61 178.906C238.245 179.362 238.004 179.905 237.908 180.481C237.863 181.184 238.246 181.825 238.496 182.493L238.538 182.611C238.572 182.706 238.601 182.802 238.625 182.9C238.779 183.56 238.728 184.251 238.477 184.881C238.203 185.584 237.797 186.228 237.283 186.779C236.316 187.823 235.099 188.613 234.124 189.645C233.396 190.405 232.809 191.304 232.088 192.071C230.382 193.878 227.993 194.914 225.563 195.408C223.661 195.751 221.729 195.907 219.796 195.875H218.147C217.889 195.89 217.63 195.85 217.389 195.757C217.11 195.57 216.87 195.332 216.68 195.055C215.686 193.916 214.026 193.7 212.509 193.571C212.493 193.426 212.507 193.279 212.55 193.14C212.593 193.001 212.664 192.872 212.759 192.762C213.005 192.471 213.213 192.151 213.381 191.809C213.859 190.48 211.864 189.102 212.494 187.827C212.552 187.707 212.632 187.599 212.729 187.508C212.792 187.444 212.862 187.387 212.937 187.337C213.393 187.081 213.909 186.95 214.431 186.958C214.712 186.958 215.004 186.958 215.288 186.923C215.739 186.906 216.172 186.737 216.517 186.445C217.142 185.849 217.055 184.851 217.214 184C217.464 182.695 218.374 181.616 219.364 180.736C220.354 179.855 221.461 179.088 222.314 178.078C223.622 176.526 224.236 174.483 224.399 172.464C224.505 171.154 224.399 169.757 223.709 168.668C223.049 167.643 221.965 167.009 220.907 166.39L220.46 166.124C219.638 165.65 218.884 165.066 218.219 164.389C218.012 164.137 217.823 163.871 217.654 163.592C217.18 162.894 216.71 161.819 216.828 160.935C216.832 160.876 216.842 160.817 216.858 160.76C217.082 159.785 218.045 159.773 218.958 159.652C219.205 159.621 219.447 159.595 219.694 159.58C220.058 159.559 220.422 159.559 220.786 159.58C222.344 159.638 223.867 160.056 225.237 160.802C225.745 161.079 226.23 161.402 226.754 161.641C227.997 162.199 229.408 162.271 230.689 162.681C233.283 163.493 235.296 165.619 236.574 168.019C237.851 170.418 238.488 173.094 239.114 175.736C239.299 176.332 239.351 176.962 239.265 177.581Z" fill="#965D7B"/>
<path opacity="0.1" d="M190.818 275.629C190.739 275.974 190.611 276.306 190.439 276.616C190.439 276.616 188.748 276.676 186.268 276.657C182.882 276.631 178.044 276.456 174.135 275.765C171.804 275.429 169.448 275.302 167.095 275.386L150.708 273.727L141.851 272.527L137.301 262.596C139.932 262.741 142.2 262.638 142.2 262.638C147.231 257.863 151.913 258.629 154.469 260.702C157.024 262.775 161.798 264.426 162.135 264.426C162.363 264.426 169.896 264.586 174.742 264.684C178.496 264.74 182.177 265.726 185.457 267.554C191.114 270.72 191.197 274.03 190.818 275.629Z" fill="black"/>
<path d="M106.681 243.54L102.962 244.906C102.962 244.906 92.6563 237.807 77.5776 241.133C62.4989 244.458 63.5225 253.33 63.5225 253.33C63.5225 253.33 64.1178 264.202 68.4515 267.934C72.7851 271.665 75.5226 271.836 77.9909 274.653C80.4591 277.47 93.2402 278.745 93.2402 278.745C93.2402 278.745 118.541 280.025 132.171 278.745C145.802 277.466 151.955 277.466 151.955 277.466C151.955 277.466 166.924 275.591 173.654 276.783C180.384 277.975 189.927 277.637 189.927 277.637C189.927 277.637 192.74 272.975 184.964 268.568C181.685 266.738 178.003 265.751 174.249 265.698C169.407 265.595 161.874 265.44 161.642 265.44C161.301 265.44 156.531 263.788 153.976 261.716C151.421 259.643 146.738 258.872 141.711 263.648C141.711 263.648 130.552 264.16 129.017 261.347C127.481 258.534 119.561 249.705 119.561 249.705L106.681 243.54Z" fill="#FFC1C7"/>
<path opacity="0.1" d="M125.195 260.296C125.195 260.296 125.111 261.841 128.562 261.587C131.754 261.347 119.106 249.944 119.106 249.944L106.215 243.775L102.495 245.145C102.495 245.145 114.973 243.665 125.195 260.296Z" fill="black"/>
<path d="M125.707 259.783C125.707 259.783 125.623 261.328 129.074 261.074C132.266 260.839 119.618 249.431 119.618 249.431L106.727 243.262L103.003 244.633C103.003 244.633 115.485 243.152 125.707 259.783Z" fill="#565988"/>
<path opacity="0.1" d="M89.0772 249.238C89.0772 249.238 92.7398 247.362 98.1085 249.708C100.025 250.535 102 251.221 104.016 251.762C107.248 252.636 110.351 253.934 113.244 255.623C116.983 257.798 122.056 260.41 124.876 260.41" stroke="black" stroke-miterlimit="10"/>
<path opacity="0.1" d="M219.171 195.844C218.912 195.862 218.653 195.822 218.412 195.727C218.132 195.542 217.891 195.303 217.703 195.024C216.71 193.886 215.03 193.669 213.533 193.544C213.411 192.883 214.173 192.405 214.401 191.783C214.882 190.454 212.884 189.076 213.514 187.804C213.84 187.132 214.708 186.961 215.455 186.942C216.202 186.923 217.032 186.942 217.571 186.422C218.196 185.823 218.109 184.824 218.272 183.974C218.518 182.672 219.428 181.59 220.418 180.709C221.408 179.828 222.518 179.062 223.372 178.052C224.676 176.499 225.29 174.461 225.457 172.437C225.563 171.124 225.457 169.731 224.763 168.622C224.005 167.453 222.704 166.792 221.514 166.067C220.406 165.454 219.442 164.612 218.685 163.596C218.185 162.86 217.677 161.698 217.889 160.768C218.101 159.838 219.08 159.781 219.993 159.659C220.263 159.621 220.528 159.599 220.801 159.583C220.189 159.556 219.577 159.581 218.97 159.659C218.056 159.781 217.074 159.792 216.865 160.768C216.657 161.743 217.161 162.86 217.665 163.596C218.422 164.612 219.386 165.454 220.494 166.067C221.65 166.785 222.962 167.464 223.72 168.603C224.429 169.712 224.52 171.105 224.414 172.418C224.247 174.442 223.656 176.48 222.329 178.033C221.476 179.05 220.369 179.813 219.379 180.69C218.39 181.567 217.483 182.653 217.229 183.955C217.066 184.805 217.154 185.804 216.532 186.403C215.993 186.92 215.159 186.904 214.412 186.923C213.665 186.942 212.797 187.113 212.471 187.785C211.857 189.057 213.84 190.442 213.362 191.764C213.131 192.394 212.372 192.864 212.49 193.525C214.007 193.65 215.682 193.855 216.661 195.005C216.846 195.286 217.088 195.525 217.37 195.708C217.61 195.804 217.87 195.844 218.128 195.825C218.678 195.825 219.231 195.825 219.785 195.825L219.171 195.844Z" fill="black"/>
<path d="M238.693 185.454C238.845 184.968 239.015 184.426 239.182 183.849C239.672 182.322 240.044 180.76 240.293 179.175C239.83 178.916 239.342 178.704 238.837 178.542C238.879 178.469 238.924 178.397 238.962 178.329L238.621 178.469C238.621 178.469 238.621 178.629 238.621 178.895C238.594 179.616 238.541 181.142 238.507 182.482C238.507 182.505 238.507 182.524 238.507 182.543C238.481 183.602 238.466 184.539 238.507 184.874L238.693 185.454Z" fill="#565988"/>
<path opacity="0.1" d="M347.907 269.771C357.02 269.771 364.407 268.755 364.407 267.501C364.407 266.247 357.02 265.231 347.907 265.231C338.794 265.231 331.406 266.247 331.406 267.501C331.406 268.755 338.794 269.771 347.907 269.771Z" fill="white"/>
<path d="M354.599 264.673C355.293 264.028 355.941 263.268 356.142 262.342C356.343 261.416 355.945 260.303 355.061 259.966C354.072 259.586 353.014 260.277 352.214 260.968C351.414 261.659 350.493 262.456 349.442 262.308C349.98 261.817 350.382 261.195 350.608 260.502C350.835 259.81 350.879 259.07 350.735 258.356C350.686 258.058 350.555 257.779 350.356 257.551C349.806 256.963 348.809 257.217 348.153 257.68C346.06 259.153 345.476 262 345.465 264.563C345.253 263.637 345.431 262.665 345.427 261.727C345.423 260.789 345.162 259.726 344.362 259.218C343.863 258.951 343.304 258.82 342.739 258.838C341.799 258.804 340.752 258.895 340.108 259.597C339.311 260.452 339.516 261.875 340.214 262.832C340.911 263.788 341.962 264.35 342.936 265.015C343.715 265.481 344.38 266.117 344.881 266.875C344.939 266.98 344.987 267.091 345.025 267.205H350.925C352.259 266.533 353.496 265.681 354.599 264.673Z" fill="white"/>
<path opacity="0.1" d="M400.665 279.516C409.778 279.516 417.166 278.5 417.166 277.246C417.166 275.992 409.778 274.976 400.665 274.976C391.552 274.976 384.165 275.992 384.165 277.246C384.165 278.5 391.552 279.516 400.665 279.516Z" fill="white"/>
<path d="M407.357 274.418C408.051 273.772 408.699 273.013 408.9 272.087C409.101 271.16 408.703 270.048 407.82 269.71C406.83 269.331 405.772 270.018 404.972 270.713C404.172 271.407 403.251 272.201 402.201 272.053C402.741 271.562 403.145 270.94 403.374 270.247C403.602 269.554 403.648 268.813 403.505 268.097C403.455 267.8 403.324 267.523 403.126 267.296C402.576 266.708 401.579 266.958 400.923 267.425C398.83 268.898 398.246 271.745 398.235 274.304C398.023 273.381 398.201 272.406 398.197 271.472C398.193 270.538 397.932 269.471 397.132 268.963C396.634 268.695 396.074 268.564 395.509 268.583C394.569 268.549 393.522 268.644 392.878 269.342C392.081 270.196 392.286 271.62 392.984 272.576C393.681 273.533 394.732 274.095 395.706 274.759C396.486 275.225 397.151 275.861 397.651 276.619C397.71 276.724 397.759 276.835 397.795 276.95H403.695C405.024 276.276 406.257 275.424 407.357 274.418Z" fill="white"/>
<path opacity="0.1" d="M367.66 300.004C376.773 300.004 384.161 298.987 384.161 297.734C384.161 296.48 376.773 295.464 367.66 295.464C358.547 295.464 351.16 296.48 351.16 297.734C351.16 298.987 358.547 300.004 367.66 300.004Z" fill="white"/>
<path d="M374.352 294.906C375.046 294.26 375.695 293.501 375.896 292.575C376.096 291.648 375.702 290.54 374.819 290.202C373.825 289.822 372.768 290.51 371.968 291.201C371.168 291.891 370.246 292.689 369.196 292.541C369.736 292.051 370.14 291.429 370.368 290.737C370.597 290.044 370.642 289.304 370.5 288.589C370.451 288.29 370.32 288.012 370.121 287.784C369.571 287.196 368.578 287.45 367.918 287.913C365.825 289.386 365.241 292.233 365.23 294.795C365.018 293.869 365.196 292.897 365.192 291.96C365.188 291.022 364.927 289.959 364.127 289.45C363.63 289.183 363.071 289.052 362.508 289.071C361.564 289.037 360.517 289.132 359.876 289.83C359.076 290.688 359.285 292.108 359.979 293.064C360.673 294.021 361.731 294.583 362.701 295.247C363.481 295.713 364.146 296.349 364.646 297.107C364.707 297.211 364.755 297.322 364.79 297.438H370.69C372.02 296.765 373.253 295.913 374.352 294.906Z" fill="white"/>
<path opacity="0.1" d="M33.0049 266.066C42.1179 266.066 49.5054 265.05 49.5054 263.796C49.5054 262.542 42.1179 261.526 33.0049 261.526C23.8919 261.526 16.5043 262.542 16.5043 263.796C16.5043 265.05 23.8919 266.066 33.0049 266.066Z" fill="white"/>
<path d="M39.6931 260.968C40.3869 260.322 41.039 259.563 41.2362 258.637C41.4334 257.711 41.0428 256.598 40.1594 256.26C39.1698 255.881 38.112 256.568 37.3082 257.263C36.5044 257.957 35.5869 258.751 34.5366 258.603C35.0774 258.113 35.4819 257.491 35.7106 256.797C35.9392 256.104 35.9841 255.363 35.8409 254.647C35.7894 254.351 35.6584 254.074 35.4618 253.846C34.912 253.258 33.9148 253.508 33.2551 253.975C31.1622 255.448 30.5783 258.295 30.567 260.854C30.3584 259.931 30.5366 258.956 30.529 258.022C30.5215 257.088 30.2636 256.021 29.4674 255.513C28.9692 255.246 28.4095 255.115 27.8447 255.133C26.9044 255.099 25.8541 255.194 25.2134 255.892C24.4134 256.746 24.6219 258.17 25.3158 259.127C26.0096 260.083 27.0674 260.645 28.0418 261.309C28.8217 261.775 29.4866 262.411 29.9869 263.169C30.0446 263.275 30.0929 263.386 30.1309 263.5H36.0419C37.3676 262.825 38.5959 261.973 39.6931 260.968Z" fill="white"/>
<path opacity="0.1" d="M16.5005 298.261C25.6135 298.261 33.0011 297.245 33.0011 295.991C33.0011 294.738 25.6135 293.721 16.5005 293.721C7.38755 293.721 0 294.738 0 295.991C0 297.245 7.38755 298.261 16.5005 298.261Z" fill="white"/>
<path d="M23.1925 293.163C23.8864 292.518 24.5347 291.758 24.7357 290.832C24.9366 289.906 24.5423 288.794 23.6589 288.456C22.6655 288.076 21.6077 288.763 20.8077 289.458C20.0077 290.153 19.0863 290.946 18.0361 290.798C18.5797 290.31 18.9874 289.689 19.2193 288.995C19.4512 288.302 19.4995 287.56 19.3593 286.842C19.3092 286.546 19.1779 286.268 18.9802 286.041C18.4304 285.453 17.437 285.704 16.7773 286.171C14.6844 287.643 14.1005 290.491 14.0892 293.053C13.8768 292.127 14.055 291.155 14.0512 290.217C14.0475 289.28 13.7858 288.217 12.9858 287.708C12.4897 287.439 11.9307 287.308 11.3669 287.328C10.4228 287.29 9.37634 287.385 8.73558 288.088C7.93558 288.942 8.14411 290.365 8.83795 291.322C9.53179 292.279 10.5896 292.84 11.5602 293.505C12.3409 293.969 13.006 294.605 13.5053 295.365C13.5662 295.469 13.6146 295.58 13.6494 295.695H19.5451C20.8695 295.02 22.0965 294.168 23.1925 293.163Z" fill="white"/>
</g>
<defs>
<linearGradient id="paint0_linear" x1="192.327" y1="284.618" x2="192.327" y2="138.268" gradientUnits="userSpaceOnUse">
<stop stop-color="#808080" stop-opacity="0.25"/>
<stop offset="0.54" stop-color="#808080" stop-opacity="0.12"/>
<stop offset="1" stop-color="#808080" stop-opacity="0.1"/>
</linearGradient>
<clipPath id="clip0">
<rect width="430" height="300" fill="white"/>
</clipPath>
</defs>
</svg>
